<svg width="53" height="60" viewBox="0 0 53 60" fill="none" xmlns="http://www.w3.org/2000/svg">
<g clip-path="url(#clip0_807_537)">
<path d="M52.0254 14.9352L26.0127 0.000976562L0 14.9352V28.3417L6.01866 24.8688V18.391L26.0127 6.91234L46.0067 18.391V20.9624L52.0254 17.4888V14.9352Z" fill="#23155B"/>
<path d="M46.0067 41.3468L26.0127 52.8254L6.01865 41.3468V35.6325L14.7957 30.5675L22.0771 34.7704L28.6855 30.9561L21.4033 26.7539L14.7949 22.939L8.1865 26.7539L6.02085 28.0039L0.00214767 31.4775V44.8018L26.0148 59.7361L52.0275 44.8018V31.3954L46.0089 34.869L46.0067 41.3468Z" fill="#23155B"/>
<path d="M46.0067 24.1028L31.4072 32.5313L24.7988 36.3456L31.4072 40.1606L38.0155 36.3456L46.0045 31.7349L52.0232 28.2613V20.6299L46.0067 24.1028Z" fill="#8053FF"/>
</g>
<defs>
<clipPath id="clip0_807_537">
<rect width="52.437" height="60" fill="white"/>
</clipPath>
</defs>
</svg>
